<svg xmlns="http://www.w3.org/2000/svg" viewBox="0 0 512 512" width="512" height="512">
  <defs>
    <radialGradient id="bg" cx="50%" cy="20%" r="95%">
      <stop offset="0%" stop-color="#1c2740"/>
      <stop offset="55%" stop-color="#0B0F17"/>
      <stop offset="100%" stop-color="#06090F"/>
    </radialGradient>
    <radialGradient id="glow" cx="50%" cy="38%" r="46%">
      <stop offset="0%" stop-color="#00E5A0" stop-opacity="0.40"/>
      <stop offset="60%" stop-color="#2D7BFF" stop-opacity="0.10"/>
      <stop offset="100%" stop-color="#2D7BFF" stop-opacity="0"/>
    </radialGradient>
    <linearGradient id="gold" x1="0" y1="0" x2="0" y2="1">
      <stop offset="0%" stop-color="#FFEFB0"/>
      <stop offset="42%" stop-color="#FFC83D"/>
      <stop offset="100%" stop-color="#DF9E2A"/>
    </linearGradient>
    <linearGradient id="goldDark" x1="0" y1="0" x2="0" y2="1">
      <stop offset="0%" stop-color="#E8B23A"/>
      <stop offset="100%" stop-color="#C9881F"/>
    </linearGradient>
  </defs>

  <!-- Fondo -->
  <rect width="512" height="512" rx="116" fill="url(#bg)"/>
  <circle cx="256" cy="210" r="170" fill="url(#glow)"/>

  <!-- Trofeo -->
  <g>
    <!-- Asa izquierda -->
    <path d="M170 138c-52 0-78 30-78 70 0 42 31 71 74 73l3-30c-27-2-45-21-45-43 0-23 16-38 49-38z" fill="url(#goldDark)"/>
    <!-- Asa derecha -->
    <path d="M342 138c52 0 78 30 78 70 0 42-31 71-74 73l-3-30c27-2 45-21 45-43 0-23-16-38-49-38z" fill="url(#goldDark)"/>
    <!-- Copa -->
    <path d="M164 116h184v52c0 82-41 138-92 138s-92-56-92-138z" fill="url(#gold)"/>
    <!-- Brillo en la copa -->
    <path d="M196 132h26v40c0 30 6 58 16 78-26-18-42-58-42-104z" fill="#FFFFFF" opacity="0.18"/>
    <!-- Estrella central -->
    <path d="M256 168l15.5 36 39 3.2-29.7 25.6 9 38-33.8-20.7-33.8 20.7 9-38-29.7-25.6 39-3.2z" fill="#0B0F17" opacity="0.22"/>
    <!-- Cuello -->
    <rect x="240" y="300" width="32" height="42" fill="url(#goldDark)"/>
    <!-- Base superior -->
    <path d="M198 342h116l-13 34h-90z" fill="url(#gold)"/>
    <!-- Plataforma -->
    <rect x="172" y="380" width="168" height="28" rx="9" fill="url(#gold)"/>
  </g>
</svg>
