<svg xmlns="http://www.w3.org/2000/svg" viewBox="0 0 512 512">
  <defs>
    <linearGradient id="g" x1="0" y1="0" x2="1" y2="1">
      <stop offset="0" stop-color="#00E5A0"/>
      <stop offset="1" stop-color="#2D7BFF"/>
    </linearGradient>
  </defs>
  <rect width="512" height="512" rx="112" fill="#0B0F17"/>
  <path d="M256 96c-88 0-160 72-160 160s72 160 160 160 160-72 160-160S344 96 256 96zm0 56a104 104 0 1 1 0 208 104 104 0 0 1 0-208z" fill="url(#g)"/>
  <path d="M256 168l24 56 60 5-46 40 14 59-52-32-52 32 14-59-46-40 60-5z" fill="url(#g)"/>
</svg>
